<!DOCTYPE svg PUBLIC "-//W3C//DTD SVG 20010904//EN" "http://www.w3.org/TR/2001/REC-SVG-20010904/DTD/svg10.dtd">
<svg version="1.0" xmlns="http://www.w3.org/2000/svg" width="113px" height="121px" viewBox="0 0 1130 1210" preserveAspectRatio="xMidYMid meet">
<g id="layer1" fill="#74c0a3" stroke="none">
 <path d="M577 843 c-4 -3 -7 -42 -7 -85 l0 -78 85 0 85 0 0 85 0 85 -78 0 c-43 0 -82 -3 -85 -7z m153 -78 l0 -75 -75 0 -75 0 0 75 0 75 75 0 75 0 0 -75z"/>
 </g>
<g id="layer2" fill="#26b99a" stroke="none">
 <path d="M580 765 l0 -75 75 0 75 0 0 75 0 75 -75 0 -75 0 0 -75z"/>
 </g>
<g id="layer3" fill="#28384c" stroke="none">
 <path d="M160 85 l0 -85 80 0 80 0 0 85 0 85 -80 0 -80 0 0 -85z"/>
 <path d="M800 85 l0 -85 80 0 80 0 0 85 0 85 -80 0 -80 0 0 -85z"/>
 </g>
<g id="layer4" fill="#cfcaaf" stroke="none">
 <path d="M170 760 l0 -300 395 0 395 0 0 300 0 300 -395 0 -395 0 0 -300z m180 190 l0 -70 -70 0 -70 0 0 70 0 70 70 0 70 0 0 -70z m190 0 l0 -70 -70 0 -70 0 0 70 0 70 70 0 70 0 0 -70z m190 0 l0 -70 -70 0 -70 0 0 70 0 70 70 0 70 0 0 -70z m180 0 l0 -70 -70 0 -70 0 0 70 0 70 70 0 70 0 0 -70z m-170 -185 l0 -85 -85 0 -85 0 0 78 c0 43 3 82 7 85 3 4 42 7 85 7 l78 0 0 -85z m-390 -5 l0 -70 -70 0 -70 0 0 70 0 70 70 0 70 0 0 -70z m190 0 l0 -70 -70 0 -70 0 0 70 0 70 70 0 70 0 0 -70z m370 0 l0 -70 -70 0 -70 0 0 70 0 70 70 0 70 0 0 -70z m-560 -190 l0 -70 -70 0 -70 0 0 70 0 70 70 0 70 0 0 -70z m190 0 l0 -70 -70 0 -70 0 0 70 0 70 70 0 70 0 0 -70z m190 0 l0 -70 -70 0 -70 0 0 70 0 70 70 0 70 0 0 -70z m180 0 l0 -70 -70 0 -70 0 0 70 0 70 70 0 70 0 0 -70z"/>
 </g>
<g id="layer5" fill="#fc3952" stroke="none">
 <path d="M0 195 l0 -115 80 0 80 0 0 45 0 45 80 0 80 0 0 -45 0 -45 240 0 240 0 0 45 0 45 80 0 80 0 0 -45 0 -45 85 0 85 0 0 115 0 115 -565 0 -565 0 0 -115z"/>
 </g>
<g id="layer6" fill="#edead9" stroke="none">
 <path d="M0 760 l0 -450 565 0 565 0 0 450 0 450 -565 0 -565 0 0 -450z m960 0 l0 -300 -395 0 -395 0 0 300 0 300 395 0 395 0 0 -300z"/>
 <path d="M210 950 l0 -70 70 0 70 0 0 70 0 70 -70 0 -70 0 0 -70z"/>
 <path d="M400 950 l0 -70 70 0 70 0 0 70 0 70 -70 0 -70 0 0 -70z"/>
 <path d="M590 950 l0 -70 70 0 70 0 0 70 0 70 -70 0 -70 0 0 -70z"/>
 <path d="M770 950 l0 -70 70 0 70 0 0 70 0 70 -70 0 -70 0 0 -70z"/>
 <path d="M210 760 l0 -70 70 0 70 0 0 70 0 70 -70 0 -70 0 0 -70z"/>
 <path d="M400 760 l0 -70 70 0 70 0 0 70 0 70 -70 0 -70 0 0 -70z"/>
 <path d="M770 760 l0 -70 70 0 70 0 0 70 0 70 -70 0 -70 0 0 -70z"/>
 <path d="M210 570 l0 -70 70 0 70 0 0 70 0 70 -70 0 -70 0 0 -70z"/>
 <path d="M400 570 l0 -70 70 0 70 0 0 70 0 70 -70 0 -70 0 0 -70z"/>
 <path d="M590 570 l0 -70 70 0 70 0 0 70 0 70 -70 0 -70 0 0 -70z"/>
 <path d="M770 570 l0 -70 70 0 70 0 0 70 0 70 -70 0 -70 0 0 -70z"/>
 </g>

</svg>