<?xml version="1.0" encoding="utf-8"?>
<!-- Generator: Adobe Illustrator 19.0.0, SVG Export Plug-In . SVG Version: 6.00 Build 0)  -->
<svg version="1.1" id="Layer_1" xmlns="http://www.w3.org/2000/svg" xmlns:xlink="http://www.w3.org/1999/xlink" x="0px" y="0px"
	 viewBox="1464 97 3439 319" style="enable-background:new 1464 97 3439 319;" xml:space="preserve">
<style type="text/css">
	.st0{fill:#FFFFFF;}
</style>
<path d="M3892,101.4c-31,4.1-61.9,6.5-85,30.6c-13.6,14.2-20.6,33.1-24.9,52c-10,43.6-10.2,96.3-0.9,140c4.2,19.7,10.9,39.9,24.9,55
	c35,37.7,102.9,35.9,149.9,29.7c13.2-1.7,26.8-4.5,39-10c59.2-26.7,58.3-99.6,58-154.7c-0.2-35.6-2.9-78.2-26.5-107
	C3997,101,3935.4,95.7,3892,101.4 M1986,300c3.6,28.3,10.6,57.9,31,79c19.9,20.5,49.4,28.1,77,30.1c43.7,3.2,88.1,0.5,130-13.1
	c-4.9-20.8-6.8-46.6-7-68c-27.3,0-54.6,3-82,3c-11.1,0-25.1,2.1-35-4.1c-10.7-6.8-13.8-19.1-15.6-30.9c-3.8-25.8-3.8-54.2,0-80
	c1.7-11.6,4.9-24.4,15.6-31c9.9-6.2,23.9-4,35-4c25,0,50.1,1,75,1l7-69c-41.4-8.6-81.6-13.5-124-10.1c-27,2.2-55.2,9.5-75,29.1
	c-14.2,14-22.3,32.8-27.1,52c-1.4,5.5-1.4,23-7,25.4c-5,2.2-13.4,0.6-18.9,0.6h-45c-51.5,0-103.6,2.2-155,0
	c-8.4-0.4-9.2-10.7-12.3-17c-7.8-16.2-17.3-31-30-43.7c-42.6-42.6-110.1-57-165.7-32.4c-19.1,8.5-37.4,20.3-51.3,36.1
	c-56.5,64.6-51.8,164.1,16.3,219.2c12.7,10.3,27.6,18.6,43,24.1c18.8,6.7,39.1,9.5,59,8.7c42.3-1.9,82.7-23.2,109.2-56
	c8.3-10.3,15-21.9,20.5-34c1.9-4.1,3-12.4,7.5-14.4c5.2-2.3,14.2-0.6,19.8-0.6h45H1986 M2254,107v298h92V296c13.1,0,33.5-3.7,45,4
	c8,5.4,9.2,16.3,11,25c3.8,18.4,7.9,36.7,12.1,55c1.3,5.5,1.8,20.4,6.5,24c5,3.8,20.2,1,26.4,1h71c-8.1-28.8-14.1-58.2-22.3-87
	c-7.4-26-19.6-48.6-49.7-51v-3c15.3-1.2,32.1-6.5,42.8-18c29.1-31.1,22.9-99.3-11.8-123.8c-25.9-18.2-61.6-19.2-92-19.2
	C2341.4,103,2297.3,101.5,2254,107 M4090,107v298h92V296c13.1,0,33.5-3.7,45,4c8,5.4,9.2,16.3,11,25c3.8,18.4,7.9,36.7,12.1,55
	c1.3,5.5,1.8,20.4,6.5,24c5,3.8,20.2,1,26.4,1h71c-8.1-28.8-14.1-58.2-22.3-87c-7.4-26-19.6-48.6-49.7-51v-3
	c15.3-1.2,32.1-6.5,42.8-18c29.1-31.1,22.9-99.3-11.8-123.8c-25.9-18.2-61.6-19.2-92-19.2C4177.4,103,4133.3,101.5,4090,107
	 M2840,405h94V290h106v-63h-106c0-11.4-3.2-28.3,0.9-39c4.9-12.8,20.1-11,31.1-11h66c5.5,0,19,2.5,23.4-1c3.1-2.5,1.9-12.2,2.3-16
	c1.9-16.1,2.6-32.8,3.3-49c-42.4-1.8-84.4-6-127-6c-23.3,0-47-1-67,13c-29.3,20.6-27,54.2-27,86V405 M2520,405h67
	c7.1,0,20.2,2.6,26.6-0.6c4-2,4.4-11.5,5.3-15.4c2.6-10.6,4.9-21.4,7.5-32c1-4.1,1.2-10.2,3.8-13.7c3.3-4.6,15.8-2.3,20.9-2.3h61
	l10.6,46l5.1,17l25.3,1h69c-3.2-23.7-13-48-19.6-71c-13.7-47.9-27.5-95.9-40.6-144c-4.5-16.7-9.4-33.4-14.1-50
	c-2.9-10-5.8-20.6-14.7-26.9c-10.5-7.4-22.8-6.1-35-6.1h-65c-10.6,0-21.2,1.6-28.7,10c-7.1,8.1-9,18.9-11.9,29
	c-5,17.6-9.9,35.3-14.8,53c-12.8,46.1-25.9,92-39,138C2532.4,358.6,2521.9,382.6,2520,405 M3071,107v70h83v228h94V177h83v-70H3071
	 M3340,107c0.1,22.5,5.8,45.7,8.7,68c6.4,48.4,12.7,96.7,19.7,145c2.3,16,4.2,32,6.5,48c1.3,9.3,1.7,19.4,8.6,26.6
	c15.5,16.1,44.3,10.4,64.5,10.4c19.2,0,48.4,5.6,63.9-8.3c14.2-12.7,12.1-44.9,14.1-62.7c6.1-54,13.7-107.9,17.9-162h7
	c1,50.3,10.9,101.1,16.8,151c1.7,14,3.5,28,5.1,42c0.9,8.1,1,17.8,5.3,25c5,8.5,14.2,13.3,23.8,14.7c24.3,3.5,51.4,0.3,76,0.3
	c12.8,0,24.7-0.8,33.8-11c6.8-7.6,7-17.4,8.3-27c2.4-17.3,4.9-34.6,7-52c5.9-49.4,13.6-98.7,20.1-148c2.6-19.7,7.6-40.2,7.7-60h-92
	c-3.3,77.3-17,154.5-17,232h-7c-2.3-53.5-14.5-107.8-20.8-161c-2.2-18.2-0.7-48.1-14.3-61.9c-15.9-16.2-52.1-9.1-72.9-9.1
	c-8.1,0-17.1-1-25,0.9c-8.3,2-15.1,6.8-19.5,14.1c-9.8,16.3-8,44.4-10.6,63c-4.8,34.3-8.7,68.7-13.2,103c-2.2,16.7-6.4,34.2-6.7,51
	h-7l-17-232H3340 M4382,107v298h94c0-41.3,2.2-83.1-3-124c4.2,0,11-1.3,14.6,1c7.5,4.8,12.7,23,16.6,31c10.4,20.7,21.1,41.3,31.5,62
	c4.1,8.1,8.1,22.4,14.9,28.4c5.1,4.5,20.9,1.6,27.4,1.6h77c-16-38.4-41.6-74.5-61.7-111c-8.5-15.5-19.2-36.2-37.3-42v-2
	c19.4-9.2,29.2-30.3,39.3-48c18.1-31.8,38.6-62.6,55.7-95h-75c-6.3,0-21.4-2.8-26.4,1.6c-6.6,5.8-10.8,18.7-14.9,26.4
	c-10,18.4-20.4,36.6-30.4,55c-4.2,7.7-9.6,24.6-17.4,29c-4,2.2-10.5,1-14.9,1c4.9-37.6,4-75,4-113H4382 M4668,107v47
	c0,4.3-1.8,13.9,1,17.4c3.8,4.8,25,1.6,31,1.6h92l-86.4,112l-27.9,36l-12.9,18l-0.7,21v45h237v-47l-1-17.4l-9-1.6h-24h-99l89.9-116
	l26.2-34l11.3-16l0.6-21v-45H4668z"/>
<path class="st0" d="M2346,169v61c16.4,0,42.6,4.9,56.9-4.5c13.8-9,13.3-44.7-0.9-53C2387.7,164.2,2362.1,169,2346,169 M4182,169v61
	c16.4,0,42.6,4.9,56.9-4.5c13.8-9,13.3-44.7-0.9-53C4223.7,164.2,4198,169,4182,169 M3912,170.4c-11.7,1.3-22.4,3.4-28.6,14.6
	c-7.8,13.8-7.7,31.6-8.4,47c-1.1,24.9-2,50.3,2.3,75c2,11.3,5.3,23.5,15.8,30c8.5,5.3,21.4,4.9,31,3.8c20.3-2.2,25.9-21.6,28.4-38.8
	c1.3-9.4,1.2-18.6,1.6-28c0.3-6.4,1-12.6,1-19C3955,224.3,3957.4,165.6,3912,170.4 M1571.3,178c-4.9,3-8.3,12.1-11,17
	c-8,14-16.1,28-24.1,42c-2.8,4.9-10.1,13.1-9.2,19c0.8,5.1,5.5,10.6,8.1,15c5.6,9.6,11.2,19.3,16.7,29c4.8,8.4,11.3,26.9,19.6,32
	c3.8,2.3,10.4,1,14.7,1h35c9.8,0,31.3,4.1,39.7-1c8.3-5,14.8-23.6,19.6-32c5.5-9.7,11.1-19.4,16.7-29c2.6-4.4,7.3-9.9,8.1-15
	c0.9-5.9-6.4-14.1-9.2-19c-8-14-16.1-28-24.1-42c-2.8-4.9-6.1-14-11-17c-3.8-2.3-10.4-1-14.7-1h-35
	C1601.2,177,1579.7,172.9,1571.3,178 M2665,177c-2.6,32.8-11.8,66.2-20,98h51c-1.4-33-18.3-64.6-19-98H2665z"/>
</svg>
